<svg version="1.1" viewBox="0.0 0.0 341.8530183727034 332.48818897637796" fill="none" stroke="none" stroke-linecap="square" stroke-miterlimit="10" xmlns:xlink="http://www.w3.org/1999/xlink" xmlns="http://www.w3.org/2000/svg"><clipPath id="p.0"><path d="m0 0l341.85303 0l0 332.4882l-341.85303 0l0 -332.4882z" clip-rule="nonzero"/></clipPath><g clip-path="url(#p.0)"><path fill="#000000" fill-opacity="0.0" d="m0 0l341.85303 0l0 332.4882l-341.85303 0z" fill-rule="evenodd"/><path fill="#ffffff" fill-opacity="0.8827" d="m12.387409 166.25197l0 0c0 -91.81843 70.97873 -166.25197 158.53543 -166.25197l0 0c42.04622 0 82.37033 17.515781 112.10149 48.694073c29.73117 31.178295 46.43396 73.46513 46.43396 117.55789l0 0c0 91.818436 -70.97873 166.25197 -158.53545 166.25197l0 0c-87.556694 0 -158.53543 -74.43353 -158.53543 -166.25197z" fill-rule="evenodd"/><path stroke="#000000" stroke-width="1.0" stroke-linejoin="round" stroke-linecap="butt" d="m12.387409 166.25197l0 0c0 -91.81843 70.97873 -166.25197 158.53543 -166.25197l0 0c42.04622 0 82.37033 17.515781 112.10149 48.694073c29.73117 31.178295 46.43396 73.46513 46.43396 117.55789l0 0c0 91.818436 -70.97873 166.25197 -158.53545 166.25197l0 0c-87.556694 0 -158.53543 -74.43353 -158.53543 -166.25197z" fill-rule="evenodd"/><path fill="#ff0000" d="m45.313313 142.23534l251.23164 0l0 48.03267l-251.23164 0z" fill-rule="evenodd"/><path stroke="#000000" stroke-width="1.0" stroke-linejoin="round" stroke-linecap="butt" d="m45.313313 142.23534l251.23164 0l0 48.03267l-251.23164 0z" fill-rule="evenodd"/></g></svg>