<svg version="1.1" viewBox="0.0 0.0 341.8530183727034 332.48818897637796" fill="none" stroke="none" stroke-linecap="square" stroke-miterlimit="10" xmlns:xlink="http://www.w3.org/1999/xlink" xmlns="http://www.w3.org/2000/svg"><clipPath id="p.0"><path d="m0 0l341.85303 0l0 332.4882l-341.85303 0l0 -332.4882z" clip-rule="nonzero"/></clipPath><g clip-path="url(#p.0)"><path fill="#000000" fill-opacity="0.0" d="m0 0l341.85303 0l0 332.4882l-341.85303 0z" fill-rule="evenodd"/><path fill="#ffffff" fill-opacity="0.8827" d="m-1.4173228E-5 166.23679l0 0c0 -91.80973 76.52758 -166.23622 170.92914 -166.23622l0 0c45.33322 0 88.80971 17.514124 120.86516 48.68946c32.05542 31.175343 50.063965 73.458176 50.063965 117.54677l0 0c0 91.80972 -76.52756 166.2362 -170.92912 166.2362l0 0c-94.40156 0 -170.92914 -74.42648 -170.92914 -166.2362z" fill-rule="evenodd"/><path stroke="#000000" stroke-width="1.0" stroke-linejoin="round" stroke-linecap="butt" d="m-1.4173228E-5 166.23679l0 0c0 -91.80973 76.52758 -166.23622 170.92914 -166.23622l0 0c45.33322 0 88.80971 17.514124 120.86516 48.68946c32.05542 31.175343 50.063965 73.458176 50.063965 117.54677l0 0c0 91.80972 -76.52756 166.2362 -170.92912 166.2362l0 0c-94.40156 0 -170.92914 -74.42648 -170.92914 -166.2362z" fill-rule="evenodd"/><path fill="#000000" d="m59.40772 172.37679l0 -1.234375l5.718754 -6.5625q-0.984375 0.046875 -1.7187538 0.046875l-3.671875 0l0 -1.234375l7.343754 0l0 1.0l-4.859379 5.703125l-0.9375 1.046875q1.015625 -0.078125 1.921875 -0.078125l4.156254 0l0 1.3125l-7.953129 0z" fill-rule="nonzero"/><path fill="#00ff00" d="m61.19516 130.89624l77.53616 0l0 -69.839966l65.74487 0l0 69.839966l77.53616 0l0 65.74487l-77.53616 0l0 69.839966l-65.74487 0l0 -69.839966l-77.53616 0z" fill-rule="evenodd"/><path stroke="#000000" stroke-width="1.0" stroke-linejoin="round" stroke-linecap="butt" d="m61.19516 130.89624l77.53616 0l0 -69.839966l65.74487 0l0 69.839966l77.53616 0l0 65.74487l-77.53616 0l0 69.839966l-65.74487 0l0 -69.839966l-77.53616 0z" fill-rule="evenodd"/></g></svg>